<mxfile host="app.diagrams.net" modified="2020-11-11T11:13:18.914Z" agent="5.0 (Windows NT 10.0; Win64; x64) AppleWebKit/537.36 (KHTML, like Gecko) Chrome/86.0.4240.193 Safari/537.36" etag="9ACHaGoWcoDmO6O0TGeq" version="13.9.6" type="github">
  <diagram id="9vj1ZgZi7MVBSs4vFIgs" name="Page-1">
    <mxGraphModel dx="1038" dy="580" grid="1" gridSize="10" guides="1" tooltips="1" connect="1" arrows="1" fold="1" page="1" pageScale="1" pageWidth="827" pageHeight="1169" math="0" shadow="0">
      <root>
        <mxCell id="0" />
        <mxCell id="1" parent="0" />
        <mxCell id="fwBL2x70ee9P1iaXBZ7O-1" value="" style="rounded=0;html=1;jettySize=auto;orthogonalLoop=1;fontSize=11;endArrow=block;endFill=0;endSize=8;strokeWidth=1;shadow=0;labelBackgroundColor=none;edgeStyle=orthogonalEdgeStyle;exitX=1;exitY=0.5;exitDx=0;exitDy=0;entryX=0;entryY=0.5;entryDx=0;entryDy=0;" parent="1" source="fwBL2x70ee9P1iaXBZ7O-25" target="fwBL2x70ee9P1iaXBZ7O-6" edge="1">
          <mxGeometry relative="1" as="geometry">
            <mxPoint x="450" y="1220" as="targetPoint" />
            <mxPoint x="450" y="1060" as="sourcePoint" />
          </mxGeometry>
        </mxCell>
        <mxCell id="fwBL2x70ee9P1iaXBZ7O-2" value="yes" style="edgeStyle=orthogonalEdgeStyle;rounded=0;html=1;jettySize=auto;orthogonalLoop=1;fontSize=11;endArrow=block;endFill=0;endSize=8;strokeWidth=1;shadow=0;labelBackgroundColor=none;exitX=1;exitY=0.5;exitDx=0;exitDy=0;entryX=0;entryY=0.5;entryDx=0;entryDy=0;align=center;" parent="1" source="fwBL2x70ee9P1iaXBZ7O-6" target="fwBL2x70ee9P1iaXBZ7O-5" edge="1">
          <mxGeometry y="10" relative="1" as="geometry">
            <mxPoint as="offset" />
            <mxPoint x="710" y="1180" as="sourcePoint" />
            <mxPoint x="760" y="1170" as="targetPoint" />
            <Array as="points">
              <mxPoint x="730" y="1080" />
              <mxPoint x="730" y="1080" />
            </Array>
          </mxGeometry>
        </mxCell>
        <mxCell id="fwBL2x70ee9P1iaXBZ7O-3" value="Müşterinin bir şirketle &lt;br&gt;ilişkisi var mı ?" style="rhombus;whiteSpace=wrap;html=1;shadow=0;fontFamily=Helvetica;fontSize=12;align=center;strokeWidth=1;spacing=6;spacingTop=-4;" parent="1" vertex="1">
          <mxGeometry x="561.5" y="1160" width="172.5" height="90" as="geometry" />
        </mxCell>
        <mxCell id="fwBL2x70ee9P1iaXBZ7O-4" value="Müşteri Ekle&lt;br&gt;Müşteri Önceliğini belirle" style="rounded=1;whiteSpace=wrap;html=1;fontSize=12;glass=0;strokeWidth=1;shadow=0;" parent="1" vertex="1">
          <mxGeometry x="566.5" y="1290" width="138.75" height="70" as="geometry" />
        </mxCell>
        <mxCell id="fwBL2x70ee9P1iaXBZ7O-5" value="Sipariş &lt;br&gt;Oluşturulsun mu ?" style="rhombus;whiteSpace=wrap;html=1;shadow=0;fontFamily=Helvetica;fontSize=12;align=center;strokeWidth=1;spacing=6;spacingTop=-4;" parent="1" vertex="1">
          <mxGeometry x="753" y="1040" width="137" height="80" as="geometry" />
        </mxCell>
        <mxCell id="fwBL2x70ee9P1iaXBZ7O-6" value="Müşteri Kaydı&lt;br&gt; Var mı ?" style="rhombus;whiteSpace=wrap;html=1;shadow=0;fontFamily=Helvetica;fontSize=12;align=center;strokeWidth=1;spacing=6;spacingTop=-4;" parent="1" vertex="1">
          <mxGeometry x="590.25" y="1040" width="115" height="80" as="geometry" />
        </mxCell>
        <mxCell id="fwBL2x70ee9P1iaXBZ7O-7" value="Yes" style="edgeStyle=orthogonalEdgeStyle;rounded=0;html=1;jettySize=auto;orthogonalLoop=1;fontSize=11;endArrow=block;endFill=0;endSize=8;strokeWidth=1;shadow=0;labelBackgroundColor=none;exitX=1;exitY=0.5;exitDx=0;exitDy=0;entryX=0;entryY=0.5;entryDx=0;entryDy=0;" parent="1" source="fwBL2x70ee9P1iaXBZ7O-5" target="fwBL2x70ee9P1iaXBZ7O-8" edge="1">
          <mxGeometry y="10" relative="1" as="geometry">
            <mxPoint y="1" as="offset" />
            <mxPoint x="870" y="1190.5" as="sourcePoint" />
            <mxPoint x="930" y="1090" as="targetPoint" />
            <Array as="points">
              <mxPoint x="910" y="1080" />
              <mxPoint x="910" y="1150" />
            </Array>
          </mxGeometry>
        </mxCell>
        <mxCell id="fwBL2x70ee9P1iaXBZ7O-8" value="- Sipariş Ekle&lt;br&gt;- Varsa Müşteri&amp;nbsp; önceliğini belirle" style="rounded=1;whiteSpace=wrap;html=1;fontSize=12;glass=0;strokeWidth=1;shadow=0;" parent="1" vertex="1">
          <mxGeometry x="945" y="1120" width="190" height="60" as="geometry" />
        </mxCell>
        <mxCell id="fwBL2x70ee9P1iaXBZ7O-9" value="No" style="rounded=0;html=1;jettySize=auto;orthogonalLoop=1;fontSize=11;endArrow=block;endFill=0;endSize=8;strokeWidth=1;shadow=0;labelBackgroundColor=none;edgeStyle=orthogonalEdgeStyle;entryX=0.5;entryY=0;entryDx=0;entryDy=0;" parent="1" source="fwBL2x70ee9P1iaXBZ7O-6" edge="1">
          <mxGeometry y="20" relative="1" as="geometry">
            <mxPoint as="offset" />
            <mxPoint x="648" y="1111" as="sourcePoint" />
            <mxPoint x="647.75" y="1161" as="targetPoint" />
            <Array as="points">
              <mxPoint x="648" y="1130" />
              <mxPoint x="648" y="1130" />
            </Array>
          </mxGeometry>
        </mxCell>
        <mxCell id="fwBL2x70ee9P1iaXBZ7O-10" value="" style="edgeStyle=orthogonalEdgeStyle;rounded=0;html=1;jettySize=auto;orthogonalLoop=1;fontSize=11;endArrow=block;endFill=0;endSize=8;strokeWidth=1;shadow=0;labelBackgroundColor=none;exitX=1;exitY=0.5;exitDx=0;exitDy=0;entryX=0.5;entryY=1;entryDx=0;entryDy=0;" parent="1" source="fwBL2x70ee9P1iaXBZ7O-4" target="fwBL2x70ee9P1iaXBZ7O-5" edge="1">
          <mxGeometry y="10" relative="1" as="geometry">
            <mxPoint as="offset" />
            <mxPoint x="550" y="1420" as="sourcePoint" />
            <mxPoint x="820" y="1190" as="targetPoint" />
            <Array as="points">
              <mxPoint x="822" y="1325" />
              <mxPoint x="822" y="1200" />
            </Array>
          </mxGeometry>
        </mxCell>
        <mxCell id="fwBL2x70ee9P1iaXBZ7O-11" value="Yes" style="edgeStyle=orthogonalEdgeStyle;rounded=0;html=1;jettySize=auto;orthogonalLoop=1;fontSize=11;endArrow=block;endFill=0;endSize=8;strokeWidth=1;shadow=0;labelBackgroundColor=none;exitX=0;exitY=0.5;exitDx=0;exitDy=0;entryX=1;entryY=0.5;entryDx=0;entryDy=0;" parent="1" source="fwBL2x70ee9P1iaXBZ7O-3" target="fwBL2x70ee9P1iaXBZ7O-12" edge="1">
          <mxGeometry y="10" relative="1" as="geometry">
            <mxPoint as="offset" />
            <mxPoint x="710" y="1330" as="sourcePoint" />
            <mxPoint x="490" y="1210" as="targetPoint" />
          </mxGeometry>
        </mxCell>
        <mxCell id="fwBL2x70ee9P1iaXBZ7O-12" value="Şirket Ekle" style="rounded=1;whiteSpace=wrap;html=1;fontSize=12;glass=0;strokeWidth=1;shadow=0;" parent="1" vertex="1">
          <mxGeometry x="410" y="1177.5" width="80" height="55" as="geometry" />
        </mxCell>
        <mxCell id="fwBL2x70ee9P1iaXBZ7O-13" value="No" style="edgeStyle=orthogonalEdgeStyle;rounded=0;html=1;jettySize=auto;orthogonalLoop=1;fontSize=11;endArrow=block;endFill=0;endSize=8;strokeWidth=1;shadow=0;labelBackgroundColor=none;entryX=0.57;entryY=-0.02;entryDx=0;entryDy=0;entryPerimeter=0;" parent="1" target="fwBL2x70ee9P1iaXBZ7O-4" edge="1">
          <mxGeometry y="10" relative="1" as="geometry">
            <mxPoint as="offset" />
            <mxPoint x="647" y="1250" as="sourcePoint" />
            <mxPoint x="647" y="1280" as="targetPoint" />
            <Array as="points" />
          </mxGeometry>
        </mxCell>
        <mxCell id="fwBL2x70ee9P1iaXBZ7O-14" value="&amp;nbsp;yes" style="edgeStyle=orthogonalEdgeStyle;rounded=0;html=1;jettySize=auto;orthogonalLoop=1;fontSize=11;endArrow=block;endFill=0;endSize=8;strokeWidth=1;shadow=0;labelBackgroundColor=none;exitX=0.371;exitY=1.025;exitDx=0;exitDy=0;exitPerimeter=0;" parent="1" source="fwBL2x70ee9P1iaXBZ7O-12" edge="1">
          <mxGeometry y="10" relative="1" as="geometry">
            <mxPoint as="offset" />
            <mxPoint x="440" y="1250" as="sourcePoint" />
            <mxPoint x="566" y="1320" as="targetPoint" />
            <Array as="points">
              <mxPoint x="440" y="1250" />
              <mxPoint x="440" y="1250" />
              <mxPoint x="440" y="1320" />
            </Array>
          </mxGeometry>
        </mxCell>
        <mxCell id="fwBL2x70ee9P1iaXBZ7O-15" value="" style="edgeStyle=orthogonalEdgeStyle;rounded=0;html=1;jettySize=auto;orthogonalLoop=1;fontSize=11;endArrow=block;endFill=0;endSize=8;strokeWidth=1;shadow=0;labelBackgroundColor=none;entryX=0.5;entryY=0;entryDx=0;entryDy=0;exitX=0.415;exitY=1.016;exitDx=0;exitDy=0;exitPerimeter=0;" parent="1" source="fwBL2x70ee9P1iaXBZ7O-8" target="fwBL2x70ee9P1iaXBZ7O-16" edge="1">
          <mxGeometry y="10" relative="1" as="geometry">
            <mxPoint as="offset" />
            <mxPoint x="1140" y="1270" as="sourcePoint" />
            <mxPoint x="830" y="1240" as="targetPoint" />
          </mxGeometry>
        </mxCell>
        <mxCell id="fwBL2x70ee9P1iaXBZ7O-16" value="Sipariş listesindeki &lt;br&gt;ürünlerin fiyatları &lt;br&gt;Belirli mi?" style="rhombus;whiteSpace=wrap;html=1;" parent="1" vertex="1">
          <mxGeometry x="920" y="1230" width="205" height="80" as="geometry" />
        </mxCell>
        <mxCell id="fwBL2x70ee9P1iaXBZ7O-17" value="No" style="edgeStyle=orthogonalEdgeStyle;rounded=0;html=1;jettySize=auto;orthogonalLoop=1;fontSize=11;endArrow=block;endFill=0;endSize=8;strokeWidth=1;shadow=0;labelBackgroundColor=none;exitX=0;exitY=0.5;exitDx=0;exitDy=0;entryX=0.5;entryY=0;entryDx=0;entryDy=0;" parent="1" source="fwBL2x70ee9P1iaXBZ7O-16" target="fwBL2x70ee9P1iaXBZ7O-18" edge="1">
          <mxGeometry y="10" relative="1" as="geometry">
            <mxPoint y="1" as="offset" />
            <mxPoint x="1060" y="1280" as="sourcePoint" />
            <mxPoint x="1315" y="1390" as="targetPoint" />
          </mxGeometry>
        </mxCell>
        <mxCell id="fwBL2x70ee9P1iaXBZ7O-18" value="Fiyatları Belirle&lt;br&gt;Sipariş Status 2" style="rounded=1;whiteSpace=wrap;html=1;fontSize=12;glass=0;strokeWidth=1;shadow=0;" parent="1" vertex="1">
          <mxGeometry x="790" y="1357.5" width="120" height="55" as="geometry" />
        </mxCell>
        <mxCell id="fwBL2x70ee9P1iaXBZ7O-19" value="" style="edgeStyle=orthogonalEdgeStyle;rounded=0;html=1;jettySize=auto;orthogonalLoop=1;fontSize=11;endArrow=block;endFill=0;endSize=8;strokeWidth=1;shadow=0;labelBackgroundColor=none;exitX=1;exitY=0.5;exitDx=0;exitDy=0;entryX=0;entryY=0.5;entryDx=0;entryDy=0;" parent="1" source="fwBL2x70ee9P1iaXBZ7O-18" target="fwBL2x70ee9P1iaXBZ7O-31" edge="1">
          <mxGeometry y="10" relative="1" as="geometry">
            <mxPoint y="1" as="offset" />
            <mxPoint x="1400" y="1390" as="sourcePoint" />
            <mxPoint x="1400" y="1510" as="targetPoint" />
          </mxGeometry>
        </mxCell>
        <mxCell id="fwBL2x70ee9P1iaXBZ7O-20" value="Sipariş &lt;br&gt;Onaylandı mı ?&lt;br&gt;İhracatçı" style="rhombus;whiteSpace=wrap;html=1;" parent="1" vertex="1">
          <mxGeometry x="1010" y="1460" width="140" height="80" as="geometry" />
        </mxCell>
        <mxCell id="fwBL2x70ee9P1iaXBZ7O-21" value="Yes" style="edgeStyle=orthogonalEdgeStyle;rounded=0;html=1;jettySize=auto;orthogonalLoop=1;fontSize=11;endArrow=block;endFill=0;endSize=8;strokeWidth=1;shadow=0;labelBackgroundColor=none;exitX=1;exitY=0.5;exitDx=0;exitDy=0;entryX=1;entryY=0.5;entryDx=0;entryDy=0;align=center;" parent="1" source="fwBL2x70ee9P1iaXBZ7O-16" target="fwBL2x70ee9P1iaXBZ7O-31" edge="1">
          <mxGeometry y="10" relative="1" as="geometry">
            <mxPoint y="1" as="offset" />
            <mxPoint x="1300" y="1410" as="sourcePoint" />
            <mxPoint x="1240" y="1270" as="targetPoint" />
          </mxGeometry>
        </mxCell>
        <mxCell id="fwBL2x70ee9P1iaXBZ7O-22" value="Yes" style="edgeStyle=orthogonalEdgeStyle;rounded=0;html=1;jettySize=auto;orthogonalLoop=1;fontSize=11;endArrow=block;endFill=0;endSize=8;strokeWidth=1;shadow=0;labelBackgroundColor=none;exitX=0.5;exitY=1;exitDx=0;exitDy=0;" parent="1" source="fwBL2x70ee9P1iaXBZ7O-20" target="fwBL2x70ee9P1iaXBZ7O-40" edge="1">
          <mxGeometry y="10" relative="1" as="geometry">
            <mxPoint y="1" as="offset" />
            <mxPoint x="1490" y="1690" as="sourcePoint" />
            <mxPoint x="1090" y="1550" as="targetPoint" />
          </mxGeometry>
        </mxCell>
        <mxCell id="fwBL2x70ee9P1iaXBZ7O-23" value="No" style="edgeStyle=orthogonalEdgeStyle;rounded=0;html=1;jettySize=auto;orthogonalLoop=1;fontSize=11;endArrow=block;endFill=0;endSize=8;strokeWidth=1;shadow=0;labelBackgroundColor=none;exitX=0;exitY=0.5;exitDx=0;exitDy=0;entryX=1;entryY=0.5;entryDx=0;entryDy=0;" parent="1" source="fwBL2x70ee9P1iaXBZ7O-20" target="fwBL2x70ee9P1iaXBZ7O-28" edge="1">
          <mxGeometry y="10" relative="1" as="geometry">
            <mxPoint y="1" as="offset" />
            <mxPoint x="1280" y="1560" as="sourcePoint" />
            <mxPoint x="1210" y="1660" as="targetPoint" />
          </mxGeometry>
        </mxCell>
        <mxCell id="fwBL2x70ee9P1iaXBZ7O-24" value="Yes" style="edgeStyle=orthogonalEdgeStyle;rounded=0;html=1;jettySize=auto;orthogonalLoop=1;fontSize=11;endArrow=block;endFill=0;endSize=8;strokeWidth=1;shadow=0;labelBackgroundColor=none;entryX=0.5;entryY=1;entryDx=0;entryDy=0;exitX=0.5;exitY=0;exitDx=0;exitDy=0;" parent="1" source="fwBL2x70ee9P1iaXBZ7O-28" target="fwBL2x70ee9P1iaXBZ7O-18" edge="1">
          <mxGeometry y="10" relative="1" as="geometry">
            <mxPoint y="1" as="offset" />
            <mxPoint x="1330" y="1460" as="sourcePoint" />
            <mxPoint x="1479.96" y="1418.6799999999998" as="targetPoint" />
          </mxGeometry>
        </mxCell>
        <mxCell id="fwBL2x70ee9P1iaXBZ7O-25" value="Başla" style="ellipse;whiteSpace=wrap;html=1;aspect=fixed;strokeWidth=5;" parent="1" vertex="1">
          <mxGeometry x="420" y="1050" width="60" height="60" as="geometry" />
        </mxCell>
        <mxCell id="fwBL2x70ee9P1iaXBZ7O-26" value="Bitir" style="ellipse;whiteSpace=wrap;html=1;aspect=fixed;strokeWidth=5;" parent="1" vertex="1">
          <mxGeometry x="1020" y="1020" width="60" height="60" as="geometry" />
        </mxCell>
        <mxCell id="fwBL2x70ee9P1iaXBZ7O-27" value="No" style="edgeStyle=orthogonalEdgeStyle;rounded=0;html=1;jettySize=auto;orthogonalLoop=1;fontSize=11;endArrow=block;endFill=0;endSize=8;strokeWidth=1;shadow=0;labelBackgroundColor=none;entryX=0;entryY=0.5;entryDx=0;entryDy=0;exitX=0.5;exitY=0;exitDx=0;exitDy=0;" parent="1" source="fwBL2x70ee9P1iaXBZ7O-5" target="fwBL2x70ee9P1iaXBZ7O-26" edge="1">
          <mxGeometry y="10" relative="1" as="geometry">
            <mxPoint y="1" as="offset" />
            <mxPoint x="803" y="1030" as="sourcePoint" />
            <mxPoint x="790" y="1340" as="targetPoint" />
            <Array as="points">
              <mxPoint x="822" y="1030" />
              <mxPoint x="955" y="1030" />
              <mxPoint x="955" y="1050" />
            </Array>
          </mxGeometry>
        </mxCell>
        <mxCell id="fwBL2x70ee9P1iaXBZ7O-28" value="Fiyatları Tekrar &lt;br&gt;belirlensin mi ?" style="rhombus;whiteSpace=wrap;html=1;" parent="1" vertex="1">
          <mxGeometry x="770" y="1460" width="160" height="80" as="geometry" />
        </mxCell>
        <mxCell id="fwBL2x70ee9P1iaXBZ7O-29" value="Bitir" style="ellipse;whiteSpace=wrap;html=1;aspect=fixed;strokeWidth=5;" parent="1" vertex="1">
          <mxGeometry x="825" y="1600" width="50" height="50" as="geometry" />
        </mxCell>
        <mxCell id="fwBL2x70ee9P1iaXBZ7O-30" value="No" style="edgeStyle=orthogonalEdgeStyle;rounded=0;html=1;jettySize=auto;orthogonalLoop=1;fontSize=11;endArrow=block;endFill=0;endSize=8;strokeWidth=1;shadow=0;labelBackgroundColor=none;exitX=0.5;exitY=1;exitDx=0;exitDy=0;" parent="1" source="fwBL2x70ee9P1iaXBZ7O-28" target="fwBL2x70ee9P1iaXBZ7O-29" edge="1">
          <mxGeometry y="10" relative="1" as="geometry">
            <mxPoint y="1" as="offset" />
            <mxPoint x="1210" y="1740" as="sourcePoint" />
            <mxPoint x="1410" y="1870" as="targetPoint" />
            <Array as="points" />
          </mxGeometry>
        </mxCell>
        <mxCell id="fwBL2x70ee9P1iaXBZ7O-31" value="Siparişi onaylamak için Müşteri ile iletişime geç" style="rounded=1;whiteSpace=wrap;html=1;fontSize=12;glass=0;strokeWidth=1;shadow=0;" parent="1" vertex="1">
          <mxGeometry x="985" y="1360" width="150" height="50" as="geometry" />
        </mxCell>
        <mxCell id="fwBL2x70ee9P1iaXBZ7O-32" value="" style="edgeStyle=orthogonalEdgeStyle;rounded=0;html=1;jettySize=auto;orthogonalLoop=1;fontSize=11;endArrow=block;endFill=0;endSize=8;strokeWidth=1;shadow=0;labelBackgroundColor=none;entryX=0.5;entryY=0;entryDx=0;entryDy=0;exitX=0.629;exitY=1.009;exitDx=0;exitDy=0;exitPerimeter=0;" parent="1" source="fwBL2x70ee9P1iaXBZ7O-31" target="fwBL2x70ee9P1iaXBZ7O-20" edge="1">
          <mxGeometry y="10" relative="1" as="geometry">
            <mxPoint y="1" as="offset" />
            <mxPoint x="1280" y="1560" as="sourcePoint" />
            <mxPoint x="1140" y="1560" as="targetPoint" />
          </mxGeometry>
        </mxCell>
        <mxCell id="fwBL2x70ee9P1iaXBZ7O-33" value="- Siparişin %20 - %30 ödemesi alınacak" style="rounded=1;whiteSpace=wrap;html=1;fontSize=12;glass=0;strokeWidth=1;shadow=0;" parent="1" vertex="1">
          <mxGeometry x="1020" y="1680" width="120" height="70" as="geometry" />
        </mxCell>
        <mxCell id="fwBL2x70ee9P1iaXBZ7O-34" value="Siparişin ödenecek &lt;br&gt;payı tamamlandı mı?" style="rhombus;whiteSpace=wrap;html=1;" parent="1" vertex="1">
          <mxGeometry x="990" y="1800" width="180" height="100" as="geometry" />
        </mxCell>
        <mxCell id="fwBL2x70ee9P1iaXBZ7O-35" value="" style="edgeStyle=orthogonalEdgeStyle;rounded=0;html=1;jettySize=auto;orthogonalLoop=1;fontSize=11;endArrow=block;endFill=0;endSize=8;strokeWidth=1;shadow=0;labelBackgroundColor=none;exitX=0.5;exitY=1;exitDx=0;exitDy=0;" parent="1" source="fwBL2x70ee9P1iaXBZ7O-33" target="fwBL2x70ee9P1iaXBZ7O-34" edge="1">
          <mxGeometry y="10" relative="1" as="geometry">
            <mxPoint y="1" as="offset" />
            <mxPoint x="1090" y="1590" as="sourcePoint" />
            <mxPoint x="1090" y="1650" as="targetPoint" />
          </mxGeometry>
        </mxCell>
        <mxCell id="fwBL2x70ee9P1iaXBZ7O-36" value="No" style="edgeStyle=orthogonalEdgeStyle;rounded=0;html=1;jettySize=auto;orthogonalLoop=1;fontSize=11;endArrow=block;endFill=0;endSize=8;strokeWidth=1;shadow=0;labelBackgroundColor=none;exitX=0;exitY=0.5;exitDx=0;exitDy=0;entryX=0;entryY=0.5;entryDx=0;entryDy=0;" parent="1" source="fwBL2x70ee9P1iaXBZ7O-34" target="fwBL2x70ee9P1iaXBZ7O-33" edge="1">
          <mxGeometry y="10" relative="1" as="geometry">
            <mxPoint y="1" as="offset" />
            <mxPoint x="1090" y="1690" as="sourcePoint" />
            <mxPoint x="950" y="1660" as="targetPoint" />
            <Array as="points">
              <mxPoint x="960" y="1850" />
              <mxPoint x="960" y="1715" />
            </Array>
          </mxGeometry>
        </mxCell>
        <mxCell id="fwBL2x70ee9P1iaXBZ7O-37" value="Yes" style="edgeStyle=orthogonalEdgeStyle;rounded=0;html=1;jettySize=auto;orthogonalLoop=1;fontSize=11;endArrow=block;endFill=0;endSize=8;strokeWidth=1;shadow=0;labelBackgroundColor=none;exitX=0.5;exitY=1;exitDx=0;exitDy=0;entryX=0.5;entryY=0;entryDx=0;entryDy=0;" parent="1" source="fwBL2x70ee9P1iaXBZ7O-34" target="fwBL2x70ee9P1iaXBZ7O-39" edge="1">
          <mxGeometry y="10" relative="1" as="geometry">
            <mxPoint y="1" as="offset" />
            <mxPoint x="1020" y="1790" as="sourcePoint" />
            <mxPoint x="1090" y="1890" as="targetPoint" />
          </mxGeometry>
        </mxCell>
        <mxCell id="fwBL2x70ee9P1iaXBZ7O-38" style="edgeStyle=orthogonalEdgeStyle;rounded=0;orthogonalLoop=1;jettySize=auto;html=1;entryX=0.5;entryY=0;entryDx=0;entryDy=0;" parent="1" source="fwBL2x70ee9P1iaXBZ7O-39" target="fwBL2x70ee9P1iaXBZ7O-44" edge="1">
          <mxGeometry relative="1" as="geometry" />
        </mxCell>
        <mxCell id="fwBL2x70ee9P1iaXBZ7O-39" value="Sipairiş satın &lt;br&gt;alma ekranında görünür" style="rounded=1;whiteSpace=wrap;html=1;fontSize=12;glass=0;strokeWidth=1;shadow=0;" parent="1" vertex="1">
          <mxGeometry x="1020" y="1950" width="120" height="60" as="geometry" />
        </mxCell>
        <mxCell id="fwBL2x70ee9P1iaXBZ7O-40" value="- Sipariş Onaylandı" style="rounded=1;whiteSpace=wrap;html=1;fontSize=12;glass=0;strokeWidth=1;shadow=0;" parent="1" vertex="1">
          <mxGeometry x="1020" y="1579.5" width="120" height="50.5" as="geometry" />
        </mxCell>
        <mxCell id="fwBL2x70ee9P1iaXBZ7O-41" value="" style="edgeStyle=orthogonalEdgeStyle;rounded=0;html=1;jettySize=auto;orthogonalLoop=1;fontSize=11;endArrow=block;endFill=0;endSize=8;strokeWidth=1;shadow=0;labelBackgroundColor=none;exitX=0.5;exitY=1;exitDx=0;exitDy=0;entryX=0.5;entryY=0;entryDx=0;entryDy=0;" parent="1" source="fwBL2x70ee9P1iaXBZ7O-40" target="fwBL2x70ee9P1iaXBZ7O-33" edge="1">
          <mxGeometry y="10" relative="1" as="geometry">
            <mxPoint y="1" as="offset" />
            <mxPoint x="1090" y="1480" as="sourcePoint" />
            <mxPoint x="1090" y="1539.5" as="targetPoint" />
          </mxGeometry>
        </mxCell>
        <mxCell id="fwBL2x70ee9P1iaXBZ7O-42" style="edgeStyle=orthogonalEdgeStyle;rounded=0;orthogonalLoop=1;jettySize=auto;html=1;" parent="1" source="fwBL2x70ee9P1iaXBZ7O-44" target="fwBL2x70ee9P1iaXBZ7O-49" edge="1">
          <mxGeometry relative="1" as="geometry" />
        </mxCell>
        <mxCell id="fwBL2x70ee9P1iaXBZ7O-43" style="edgeStyle=orthogonalEdgeStyle;rounded=0;orthogonalLoop=1;jettySize=auto;html=1;entryX=0.5;entryY=0;entryDx=0;entryDy=0;" parent="1" source="fwBL2x70ee9P1iaXBZ7O-44" target="fwBL2x70ee9P1iaXBZ7O-46" edge="1">
          <mxGeometry relative="1" as="geometry" />
        </mxCell>
        <mxCell id="fwBL2x70ee9P1iaXBZ7O-44" value="Tedarikçi Var mı?" style="rhombus;whiteSpace=wrap;html=1;" parent="1" vertex="1">
          <mxGeometry x="673" y="2060" width="107" height="100" as="geometry" />
        </mxCell>
        <mxCell id="fwBL2x70ee9P1iaXBZ7O-45" style="edgeStyle=orthogonalEdgeStyle;rounded=0;orthogonalLoop=1;jettySize=auto;html=1;entryX=0;entryY=0.5;entryDx=0;entryDy=0;" parent="1" source="fwBL2x70ee9P1iaXBZ7O-46" target="fwBL2x70ee9P1iaXBZ7O-51" edge="1">
          <mxGeometry relative="1" as="geometry">
            <mxPoint x="823" y="2250" as="targetPoint" />
          </mxGeometry>
        </mxCell>
        <mxCell id="fwBL2x70ee9P1iaXBZ7O-46" value="Tedarikçi Oluştur" style="shape=parallelogram;perimeter=parallelogramPerimeter;whiteSpace=wrap;html=1;fixedSize=1;" parent="1" vertex="1">
          <mxGeometry x="666.5" y="2220" width="120" height="60" as="geometry" />
        </mxCell>
        <mxCell id="fwBL2x70ee9P1iaXBZ7O-47" style="edgeStyle=orthogonalEdgeStyle;rounded=0;orthogonalLoop=1;jettySize=auto;html=1;entryX=0.5;entryY=0;entryDx=0;entryDy=0;" parent="1" source="fwBL2x70ee9P1iaXBZ7O-49" target="fwBL2x70ee9P1iaXBZ7O-51" edge="1">
          <mxGeometry relative="1" as="geometry" />
        </mxCell>
        <mxCell id="fwBL2x70ee9P1iaXBZ7O-48" style="edgeStyle=orthogonalEdgeStyle;rounded=0;orthogonalLoop=1;jettySize=auto;html=1;entryX=0;entryY=0.5;entryDx=0;entryDy=0;" parent="1" source="fwBL2x70ee9P1iaXBZ7O-49" target="fwBL2x70ee9P1iaXBZ7O-74" edge="1">
          <mxGeometry relative="1" as="geometry" />
        </mxCell>
        <mxCell id="fwBL2x70ee9P1iaXBZ7O-49" value="Yetkili Var Mı?" style="rhombus;whiteSpace=wrap;html=1;" parent="1" vertex="1">
          <mxGeometry x="856" y="2060" width="107" height="100" as="geometry" />
        </mxCell>
        <mxCell id="fwBL2x70ee9P1iaXBZ7O-50" style="edgeStyle=orthogonalEdgeStyle;rounded=0;orthogonalLoop=1;jettySize=auto;html=1;entryX=0;entryY=0.5;entryDx=0;entryDy=0;" parent="1" source="fwBL2x70ee9P1iaXBZ7O-51" target="fwBL2x70ee9P1iaXBZ7O-74" edge="1">
          <mxGeometry relative="1" as="geometry">
            <Array as="points">
              <mxPoint x="993" y="2250" />
              <mxPoint x="993" y="2110" />
            </Array>
            <mxPoint x="1026.5" y="2110" as="targetPoint" />
          </mxGeometry>
        </mxCell>
        <mxCell id="fwBL2x70ee9P1iaXBZ7O-51" value="Yetkili Oluştur" style="shape=parallelogram;perimeter=parallelogramPerimeter;whiteSpace=wrap;html=1;fixedSize=1;" parent="1" vertex="1">
          <mxGeometry x="849.5" y="2220" width="120" height="60" as="geometry" />
        </mxCell>
        <mxCell id="fwBL2x70ee9P1iaXBZ7O-52" style="edgeStyle=orthogonalEdgeStyle;rounded=0;orthogonalLoop=1;jettySize=auto;html=1;" parent="1" source="fwBL2x70ee9P1iaXBZ7O-53" target="fwBL2x70ee9P1iaXBZ7O-60" edge="1">
          <mxGeometry relative="1" as="geometry" />
        </mxCell>
        <mxCell id="fwBL2x70ee9P1iaXBZ7O-53" value="Sipariş için&lt;br&gt;Tedarikçi seç.." style="shape=parallelogram;perimeter=parallelogramPerimeter;whiteSpace=wrap;html=1;fixedSize=1;" parent="1" vertex="1">
          <mxGeometry x="1020" y="2220" width="120" height="60" as="geometry" />
        </mxCell>
        <mxCell id="fwBL2x70ee9P1iaXBZ7O-54" style="edgeStyle=orthogonalEdgeStyle;rounded=0;orthogonalLoop=1;jettySize=auto;html=1;" parent="1" source="fwBL2x70ee9P1iaXBZ7O-55" target="fwBL2x70ee9P1iaXBZ7O-58" edge="1">
          <mxGeometry relative="1" as="geometry" />
        </mxCell>
        <mxCell id="fwBL2x70ee9P1iaXBZ7O-55" value="Sipariş Oluştur" style="shape=parallelogram;perimeter=parallelogramPerimeter;whiteSpace=wrap;html=1;fixedSize=1;" parent="1" vertex="1">
          <mxGeometry x="849.5" y="2330" width="120" height="60" as="geometry" />
        </mxCell>
        <mxCell id="fwBL2x70ee9P1iaXBZ7O-56" style="edgeStyle=orthogonalEdgeStyle;rounded=0;orthogonalLoop=1;jettySize=auto;html=1;entryX=0;entryY=0.5;entryDx=0;entryDy=0;" parent="1" source="fwBL2x70ee9P1iaXBZ7O-58" target="fwBL2x70ee9P1iaXBZ7O-44" edge="1">
          <mxGeometry relative="1" as="geometry">
            <Array as="points">
              <mxPoint x="623" y="2360" />
              <mxPoint x="623" y="2110" />
            </Array>
          </mxGeometry>
        </mxCell>
        <mxCell id="fwBL2x70ee9P1iaXBZ7O-57" style="edgeStyle=orthogonalEdgeStyle;rounded=0;orthogonalLoop=1;jettySize=auto;html=1;entryX=0.5;entryY=0;entryDx=0;entryDy=0;" parent="1" source="fwBL2x70ee9P1iaXBZ7O-58" target="fwBL2x70ee9P1iaXBZ7O-69" edge="1">
          <mxGeometry relative="1" as="geometry" />
        </mxCell>
        <mxCell id="fwBL2x70ee9P1iaXBZ7O-58" value="Sipariş Yeterli mi?" style="rhombus;whiteSpace=wrap;html=1;" parent="1" vertex="1">
          <mxGeometry x="673" y="2310" width="107" height="100" as="geometry" />
        </mxCell>
        <mxCell id="fwBL2x70ee9P1iaXBZ7O-59" style="edgeStyle=orthogonalEdgeStyle;rounded=0;orthogonalLoop=1;jettySize=auto;html=1;entryX=1;entryY=0.5;entryDx=0;entryDy=0;" parent="1" source="fwBL2x70ee9P1iaXBZ7O-60" target="fwBL2x70ee9P1iaXBZ7O-55" edge="1">
          <mxGeometry relative="1" as="geometry" />
        </mxCell>
        <mxCell id="fwBL2x70ee9P1iaXBZ7O-60" value="Yetkili Seç" style="shape=parallelogram;perimeter=parallelogramPerimeter;whiteSpace=wrap;html=1;fixedSize=1;" parent="1" vertex="1">
          <mxGeometry x="1020" y="2330" width="120" height="60" as="geometry" />
        </mxCell>
        <mxCell id="fwBL2x70ee9P1iaXBZ7O-61" value="Evet" style="text;html=1;strokeColor=none;fillColor=none;align=center;verticalAlign=middle;whiteSpace=wrap;rounded=0;" parent="1" vertex="1">
          <mxGeometry x="683" y="2420" width="40" height="20" as="geometry" />
        </mxCell>
        <mxCell id="fwBL2x70ee9P1iaXBZ7O-62" value="Hayır" style="text;html=1;strokeColor=none;fillColor=none;align=center;verticalAlign=middle;whiteSpace=wrap;rounded=0;" parent="1" vertex="1">
          <mxGeometry x="913" y="2165" width="40" height="20" as="geometry" />
        </mxCell>
        <mxCell id="fwBL2x70ee9P1iaXBZ7O-63" value="Hayır" style="text;html=1;strokeColor=none;fillColor=none;align=center;verticalAlign=middle;whiteSpace=wrap;rounded=0;" parent="1" vertex="1">
          <mxGeometry x="733" y="2165" width="40" height="20" as="geometry" />
        </mxCell>
        <mxCell id="fwBL2x70ee9P1iaXBZ7O-64" value="Evet" style="text;html=1;strokeColor=none;fillColor=none;align=center;verticalAlign=middle;whiteSpace=wrap;rounded=0;" parent="1" vertex="1">
          <mxGeometry x="970" y="2090" width="40" height="20" as="geometry" />
        </mxCell>
        <mxCell id="fwBL2x70ee9P1iaXBZ7O-65" value="Evet" style="text;html=1;strokeColor=none;fillColor=none;align=center;verticalAlign=middle;whiteSpace=wrap;rounded=0;" parent="1" vertex="1">
          <mxGeometry x="793" y="2090" width="40" height="20" as="geometry" />
        </mxCell>
        <mxCell id="fwBL2x70ee9P1iaXBZ7O-68" style="edgeStyle=orthogonalEdgeStyle;rounded=0;orthogonalLoop=1;jettySize=auto;html=1;entryX=0.5;entryY=0;entryDx=0;entryDy=0;" parent="1" source="fwBL2x70ee9P1iaXBZ7O-69" target="fwBL2x70ee9P1iaXBZ7O-280" edge="1">
          <mxGeometry relative="1" as="geometry">
            <mxPoint x="863" y="2490" as="targetPoint" />
          </mxGeometry>
        </mxCell>
        <mxCell id="fwBL2x70ee9P1iaXBZ7O-69" value="İlaçları Bekle&lt;br&gt;(Status)" style="shape=parallelogram;perimeter=parallelogramPerimeter;whiteSpace=wrap;html=1;fixedSize=1;" parent="1" vertex="1">
          <mxGeometry x="666.5" y="2460" width="120" height="60" as="geometry" />
        </mxCell>
        <mxCell id="fwBL2x70ee9P1iaXBZ7O-72" value="Hayır" style="text;html=1;strokeColor=none;fillColor=none;align=center;verticalAlign=middle;whiteSpace=wrap;rounded=0;" parent="1" vertex="1">
          <mxGeometry x="623" y="2165" width="40" height="20" as="geometry" />
        </mxCell>
        <mxCell id="fwBL2x70ee9P1iaXBZ7O-73" style="edgeStyle=orthogonalEdgeStyle;rounded=0;orthogonalLoop=1;jettySize=auto;html=1;" parent="1" source="fwBL2x70ee9P1iaXBZ7O-74" edge="1">
          <mxGeometry relative="1" as="geometry">
            <mxPoint x="1090" y="2220" as="targetPoint" />
          </mxGeometry>
        </mxCell>
        <mxCell id="fwBL2x70ee9P1iaXBZ7O-74" value="Sipariş Oluştur" style="shape=parallelogram;perimeter=parallelogramPerimeter;whiteSpace=wrap;html=1;fixedSize=1;" parent="1" vertex="1">
          <mxGeometry x="1030" y="2080" width="120" height="60" as="geometry" />
        </mxCell>
        <mxCell id="fwBL2x70ee9P1iaXBZ7O-75" style="edgeStyle=orthogonalEdgeStyle;rounded=0;orthogonalLoop=1;jettySize=auto;html=1;" parent="1" edge="1">
          <mxGeometry relative="1" as="geometry">
            <mxPoint x="730" y="2060" as="targetPoint" />
            <mxPoint x="650" y="2020" as="sourcePoint" />
            <Array as="points">
              <mxPoint x="730" y="2020" />
            </Array>
          </mxGeometry>
        </mxCell>
        <mxCell id="fwBL2x70ee9P1iaXBZ7O-76" value="&lt;span&gt;Stok Sparişi oluştur&lt;/span&gt;" style="shape=parallelogram;perimeter=parallelogramPerimeter;whiteSpace=wrap;html=1;fixedSize=1;gradientColor=#ffffff;" parent="1" vertex="1">
          <mxGeometry x="520" y="1990" width="140" height="60" as="geometry" />
        </mxCell>
        <mxCell id="fwBL2x70ee9P1iaXBZ7O-77" style="edgeStyle=orthogonalEdgeStyle;rounded=0;orthogonalLoop=1;jettySize=auto;html=1;exitX=1;exitY=0.5;exitDx=0;exitDy=0;entryX=0;entryY=0.5;entryDx=0;entryDy=0;" parent="1" source="fwBL2x70ee9P1iaXBZ7O-39" target="fwBL2x70ee9P1iaXBZ7O-78" edge="1">
          <mxGeometry relative="1" as="geometry">
            <mxPoint x="1150" y="1979.5" as="sourcePoint" />
            <mxPoint x="1200" y="1980" as="targetPoint" />
          </mxGeometry>
        </mxCell>
        <mxCell id="fwBL2x70ee9P1iaXBZ7O-78" value="Depoda Stok Var Mı?" style="rhombus;whiteSpace=wrap;html=1;" parent="1" vertex="1">
          <mxGeometry x="1210" y="1930" width="107" height="100" as="geometry" />
        </mxCell>
        <mxCell id="fwBL2x70ee9P1iaXBZ7O-79" style="edgeStyle=orthogonalEdgeStyle;rounded=0;orthogonalLoop=1;jettySize=auto;html=1;exitX=0.5;exitY=0;exitDx=0;exitDy=0;entryX=1;entryY=0;entryDx=0;entryDy=0;" parent="1" source="fwBL2x70ee9P1iaXBZ7O-78" target="fwBL2x70ee9P1iaXBZ7O-39" edge="1">
          <mxGeometry relative="1" as="geometry">
            <mxPoint x="1317" y="1900" as="sourcePoint" />
            <mxPoint x="1150" y="1930" as="targetPoint" />
            <Array as="points">
              <mxPoint x="1140" y="1930" />
            </Array>
          </mxGeometry>
        </mxCell>
        <mxCell id="fwBL2x70ee9P1iaXBZ7O-80" value="Hayır" style="text;html=1;strokeColor=none;fillColor=none;align=center;verticalAlign=middle;whiteSpace=wrap;rounded=0;" parent="1" vertex="1">
          <mxGeometry x="1170" y="1910" width="40" height="20" as="geometry" />
        </mxCell>
        <mxCell id="fwBL2x70ee9P1iaXBZ7O-81" style="edgeStyle=orthogonalEdgeStyle;rounded=0;orthogonalLoop=1;jettySize=auto;html=1;exitX=0.5;exitY=1;exitDx=0;exitDy=0;" parent="1" source="fwBL2x70ee9P1iaXBZ7O-78" edge="1">
          <mxGeometry relative="1" as="geometry">
            <mxPoint x="1263" y="2060" as="sourcePoint" />
            <mxPoint x="1263" y="2090" as="targetPoint" />
          </mxGeometry>
        </mxCell>
        <mxCell id="fwBL2x70ee9P1iaXBZ7O-82" value="Evet" style="text;html=1;strokeColor=none;fillColor=none;align=center;verticalAlign=middle;whiteSpace=wrap;rounded=0;" parent="1" vertex="1">
          <mxGeometry x="1260" y="2040" width="40" height="20" as="geometry" />
        </mxCell>
        <mxCell id="fwBL2x70ee9P1iaXBZ7O-83" value="Sipariş Oluştur" style="shape=parallelogram;perimeter=parallelogramPerimeter;whiteSpace=wrap;html=1;fixedSize=1;" parent="1" vertex="1">
          <mxGeometry x="1203.5" y="2090" width="120" height="60" as="geometry" />
        </mxCell>
        <mxCell id="fwBL2x70ee9P1iaXBZ7O-85" value="Depo Siparişi Yeterli mi?" style="rhombus;whiteSpace=wrap;html=1;" parent="1" vertex="1">
          <mxGeometry x="1210" y="2210" width="107" height="100" as="geometry" />
        </mxCell>
        <mxCell id="fwBL2x70ee9P1iaXBZ7O-86" style="edgeStyle=orthogonalEdgeStyle;rounded=0;orthogonalLoop=1;jettySize=auto;html=1;exitX=0.5;exitY=1;exitDx=0;exitDy=0;entryX=0.5;entryY=0;entryDx=0;entryDy=0;" parent="1" source="fwBL2x70ee9P1iaXBZ7O-83" target="fwBL2x70ee9P1iaXBZ7O-85" edge="1">
          <mxGeometry relative="1" as="geometry">
            <mxPoint x="1343" y="2165" as="sourcePoint" />
            <mxPoint x="1342.5" y="2225" as="targetPoint" />
            <Array as="points">
              <mxPoint x="1264" y="2210" />
            </Array>
          </mxGeometry>
        </mxCell>
        <mxCell id="fwBL2x70ee9P1iaXBZ7O-87" style="edgeStyle=orthogonalEdgeStyle;rounded=0;orthogonalLoop=1;jettySize=auto;html=1;exitX=1;exitY=0.5;exitDx=0;exitDy=0;entryX=1;entryY=0.5;entryDx=0;entryDy=0;" parent="1" source="fwBL2x70ee9P1iaXBZ7O-85" target="fwBL2x70ee9P1iaXBZ7O-83" edge="1">
          <mxGeometry relative="1" as="geometry">
            <mxPoint x="1350" y="2120" as="targetPoint" />
            <mxPoint x="1350" y="2249.5" as="sourcePoint" />
            <Array as="points">
              <mxPoint x="1370" y="2260" />
              <mxPoint x="1370" y="2120" />
            </Array>
          </mxGeometry>
        </mxCell>
        <mxCell id="fwBL2x70ee9P1iaXBZ7O-88" value="Hayır" style="text;html=1;strokeColor=none;fillColor=none;align=center;verticalAlign=middle;whiteSpace=wrap;rounded=0;" parent="1" vertex="1">
          <mxGeometry x="1370" y="2180" width="40" height="20" as="geometry" />
        </mxCell>
        <mxCell id="fwBL2x70ee9P1iaXBZ7O-89" style="edgeStyle=orthogonalEdgeStyle;rounded=0;orthogonalLoop=1;jettySize=auto;html=1;entryX=0.75;entryY=0;entryDx=0;entryDy=0;exitX=1;exitY=0.5;exitDx=0;exitDy=0;" parent="1" source="fwBL2x70ee9P1iaXBZ7O-92" target="fwBL2x70ee9P1iaXBZ7O-39" edge="1">
          <mxGeometry relative="1" as="geometry">
            <mxPoint x="1470" y="2040" as="targetPoint" />
            <mxPoint x="1440" y="2490" as="sourcePoint" />
            <Array as="points">
              <mxPoint x="1440" y="2495" />
              <mxPoint x="1440" y="1890" />
              <mxPoint x="1110" y="1890" />
            </Array>
          </mxGeometry>
        </mxCell>
        <mxCell id="fwBL2x70ee9P1iaXBZ7O-90" value="Evet" style="text;html=1;strokeColor=none;fillColor=none;align=center;verticalAlign=middle;whiteSpace=wrap;rounded=0;" parent="1" vertex="1">
          <mxGeometry x="1270" y="2310" width="40" height="20" as="geometry" />
        </mxCell>
        <mxCell id="fwBL2x70ee9P1iaXBZ7O-92" value="Sipariş Tamamlandı mı?" style="rhombus;whiteSpace=wrap;html=1;" parent="1" vertex="1">
          <mxGeometry x="1210" y="2445" width="107" height="100" as="geometry" />
        </mxCell>
        <mxCell id="fwBL2x70ee9P1iaXBZ7O-94" value="Depo &lt;br&gt;Rezervasyonu&lt;br&gt;&amp;nbsp;Yapıldı&lt;br&gt;(Status)" style="shape=parallelogram;perimeter=parallelogramPerimeter;whiteSpace=wrap;html=1;fixedSize=1;" parent="1" vertex="1">
          <mxGeometry x="1203.5" y="2338" width="120" height="60" as="geometry" />
        </mxCell>
        <mxCell id="fwBL2x70ee9P1iaXBZ7O-95" style="edgeStyle=orthogonalEdgeStyle;rounded=0;orthogonalLoop=1;jettySize=auto;html=1;" parent="1" edge="1">
          <mxGeometry relative="1" as="geometry">
            <mxPoint x="1263" y="2310" as="sourcePoint" />
            <mxPoint x="1263" y="2340" as="targetPoint" />
          </mxGeometry>
        </mxCell>
        <mxCell id="fwBL2x70ee9P1iaXBZ7O-96" style="edgeStyle=orthogonalEdgeStyle;rounded=0;orthogonalLoop=1;jettySize=auto;html=1;" parent="1" edge="1">
          <mxGeometry relative="1" as="geometry">
            <mxPoint x="1263" y="2398" as="sourcePoint" />
            <mxPoint x="1263" y="2448" as="targetPoint" />
          </mxGeometry>
        </mxCell>
        <mxCell id="fwBL2x70ee9P1iaXBZ7O-97" style="edgeStyle=orthogonalEdgeStyle;rounded=0;orthogonalLoop=1;jettySize=auto;html=1;entryX=0.75;entryY=0;entryDx=0;entryDy=0;" parent="1" target="fwBL2x70ee9P1iaXBZ7O-280" edge="1">
          <mxGeometry relative="1" as="geometry">
            <mxPoint x="1210.5" y="2494.5" as="sourcePoint" />
            <mxPoint x="1140" y="2494.5" as="targetPoint" />
            <Array as="points">
              <mxPoint x="1211" y="2490" />
              <mxPoint x="940" y="2490" />
            </Array>
          </mxGeometry>
        </mxCell>
        <mxCell id="fwBL2x70ee9P1iaXBZ7O-98" value="Evet" style="text;html=1;strokeColor=none;fillColor=none;align=center;verticalAlign=middle;whiteSpace=wrap;rounded=0;" parent="1" vertex="1">
          <mxGeometry x="1080" y="2470" width="40" height="20" as="geometry" />
        </mxCell>
        <mxCell id="fwBL2x70ee9P1iaXBZ7O-99" value="Hayır" style="text;html=1;strokeColor=none;fillColor=none;align=center;verticalAlign=middle;whiteSpace=wrap;rounded=0;" parent="1" vertex="1">
          <mxGeometry x="1440" y="2180" width="40" height="20" as="geometry" />
        </mxCell>
        <mxCell id="fwBL2x70ee9P1iaXBZ7O-100" value="Depo-Stok" style="shape=parallelogram;perimeter=parallelogramPerimeter;whiteSpace=wrap;html=1;fixedSize=1;" parent="1" vertex="1">
          <mxGeometry x="723" y="3450" width="133" height="60" as="geometry" />
        </mxCell>
        <mxCell id="fwBL2x70ee9P1iaXBZ7O-101" style="edgeStyle=orthogonalEdgeStyle;rounded=0;orthogonalLoop=1;jettySize=auto;html=1;exitX=1;exitY=0.5;exitDx=0;exitDy=0;entryX=0;entryY=0.5;entryDx=0;entryDy=0;" parent="1" source="fwBL2x70ee9P1iaXBZ7O-100" target="fwBL2x70ee9P1iaXBZ7O-102" edge="1">
          <mxGeometry relative="1" as="geometry">
            <mxPoint x="1239" y="3340" as="sourcePoint" />
            <mxPoint x="1151" y="3350" as="targetPoint" />
          </mxGeometry>
        </mxCell>
        <mxCell id="fwBL2x70ee9P1iaXBZ7O-102" value="Sipariş Hazırlanıyor&lt;br&gt;(Status)" style="shape=parallelogram;perimeter=parallelogramPerimeter;whiteSpace=wrap;html=1;fixedSize=1;" parent="1" vertex="1">
          <mxGeometry x="876.5" y="3450" width="133" height="60" as="geometry" />
        </mxCell>
        <mxCell id="fwBL2x70ee9P1iaXBZ7O-103" style="edgeStyle=orthogonalEdgeStyle;rounded=0;orthogonalLoop=1;jettySize=auto;html=1;entryX=0;entryY=0.5;entryDx=0;entryDy=0;exitX=1;exitY=0.5;exitDx=0;exitDy=0;" parent="1" source="fwBL2x70ee9P1iaXBZ7O-102" target="fwBL2x70ee9P1iaXBZ7O-104" edge="1">
          <mxGeometry relative="1" as="geometry">
            <mxPoint x="1289" y="3470" as="sourcePoint" />
            <mxPoint x="1152.5" y="3530" as="targetPoint" />
            <Array as="points" />
          </mxGeometry>
        </mxCell>
        <mxCell id="fwBL2x70ee9P1iaXBZ7O-104" value="Koli Aç" style="shape=parallelogram;perimeter=parallelogramPerimeter;whiteSpace=wrap;html=1;fixedSize=1;" parent="1" vertex="1">
          <mxGeometry x="1026" y="3450" width="133" height="60" as="geometry" />
        </mxCell>
        <mxCell id="fwBL2x70ee9P1iaXBZ7O-105" value="İlaç Okut,&amp;nbsp;&lt;br&gt;Koliye Ekle" style="shape=parallelogram;perimeter=parallelogramPerimeter;whiteSpace=wrap;html=1;fixedSize=1;" parent="1" vertex="1">
          <mxGeometry x="1026" y="3550" width="133" height="60" as="geometry" />
        </mxCell>
        <mxCell id="fwBL2x70ee9P1iaXBZ7O-106" value="Koli Doldu mu?" style="rhombus;whiteSpace=wrap;html=1;" parent="1" vertex="1">
          <mxGeometry x="1043" y="3640" width="107" height="100" as="geometry" />
        </mxCell>
        <mxCell id="fwBL2x70ee9P1iaXBZ7O-107" style="edgeStyle=orthogonalEdgeStyle;rounded=0;orthogonalLoop=1;jettySize=auto;html=1;exitX=0.5;exitY=1;exitDx=0;exitDy=0;" parent="1" source="fwBL2x70ee9P1iaXBZ7O-104" edge="1">
          <mxGeometry relative="1" as="geometry">
            <mxPoint x="1092.5" y="3520" as="sourcePoint" />
            <mxPoint x="1092.5" y="3550" as="targetPoint" />
            <Array as="points" />
          </mxGeometry>
        </mxCell>
        <mxCell id="fwBL2x70ee9P1iaXBZ7O-108" style="edgeStyle=orthogonalEdgeStyle;rounded=0;orthogonalLoop=1;jettySize=auto;html=1;exitX=0.5;exitY=1;exitDx=0;exitDy=0;entryX=0.5;entryY=0;entryDx=0;entryDy=0;" parent="1" source="fwBL2x70ee9P1iaXBZ7O-105" target="fwBL2x70ee9P1iaXBZ7O-106" edge="1">
          <mxGeometry relative="1" as="geometry">
            <mxPoint x="1152" y="3770" as="sourcePoint" />
            <mxPoint x="1096.5" y="3670" as="targetPoint" />
            <Array as="points">
              <mxPoint x="1096.5" y="3610" />
              <mxPoint x="1096.5" y="3640" />
            </Array>
          </mxGeometry>
        </mxCell>
        <mxCell id="fwBL2x70ee9P1iaXBZ7O-109" value="Hayır" style="text;html=1;strokeColor=none;fillColor=none;align=center;verticalAlign=middle;whiteSpace=wrap;rounded=0;" parent="1" vertex="1">
          <mxGeometry x="1180" y="3620" width="40" height="20" as="geometry" />
        </mxCell>
        <mxCell id="fwBL2x70ee9P1iaXBZ7O-110" style="edgeStyle=orthogonalEdgeStyle;rounded=0;orthogonalLoop=1;jettySize=auto;html=1;exitX=1;exitY=0.5;exitDx=0;exitDy=0;entryX=1;entryY=0.5;entryDx=0;entryDy=0;" parent="1" source="fwBL2x70ee9P1iaXBZ7O-106" target="fwBL2x70ee9P1iaXBZ7O-105" edge="1">
          <mxGeometry relative="1" as="geometry">
            <mxPoint x="1209" y="3850" as="sourcePoint" />
            <mxPoint x="1226.5" y="3720" as="targetPoint" />
            <Array as="points">
              <mxPoint x="1176.5" y="3690" />
              <mxPoint x="1176.5" y="3580" />
            </Array>
          </mxGeometry>
        </mxCell>
        <mxCell id="fwBL2x70ee9P1iaXBZ7O-111" style="edgeStyle=orthogonalEdgeStyle;rounded=0;orthogonalLoop=1;jettySize=auto;html=1;exitX=0.5;exitY=1;exitDx=0;exitDy=0;entryX=0.5;entryY=0;entryDx=0;entryDy=0;" parent="1" source="fwBL2x70ee9P1iaXBZ7O-106" target="fwBL2x70ee9P1iaXBZ7O-113" edge="1">
          <mxGeometry relative="1" as="geometry">
            <mxPoint x="1152" y="3900" as="sourcePoint" />
            <mxPoint x="1096.5" y="3800" as="targetPoint" />
            <Array as="points" />
          </mxGeometry>
        </mxCell>
        <mxCell id="fwBL2x70ee9P1iaXBZ7O-112" value="Evet" style="text;html=1;strokeColor=none;fillColor=none;align=center;verticalAlign=middle;whiteSpace=wrap;rounded=0;" parent="1" vertex="1">
          <mxGeometry x="1096.5" y="3750" width="40" height="20" as="geometry" />
        </mxCell>
        <mxCell id="fwBL2x70ee9P1iaXBZ7O-113" value="Koli Kapat" style="shape=parallelogram;perimeter=parallelogramPerimeter;whiteSpace=wrap;html=1;fixedSize=1;" parent="1" vertex="1">
          <mxGeometry x="1030" y="3780" width="133" height="60" as="geometry" />
        </mxCell>
        <mxCell id="fwBL2x70ee9P1iaXBZ7O-114" value="Sipariş Tamamlandı mı?" style="rhombus;whiteSpace=wrap;html=1;" parent="1" vertex="1">
          <mxGeometry x="1193" y="3760" width="107" height="100" as="geometry" />
        </mxCell>
        <mxCell id="fwBL2x70ee9P1iaXBZ7O-116" value="Hayır" style="text;html=1;strokeColor=none;fillColor=none;align=center;verticalAlign=middle;whiteSpace=wrap;rounded=0;" parent="1" vertex="1">
          <mxGeometry x="1246.5" y="3590" width="40" height="20" as="geometry" />
        </mxCell>
        <mxCell id="fwBL2x70ee9P1iaXBZ7O-117" style="edgeStyle=orthogonalEdgeStyle;rounded=0;orthogonalLoop=1;jettySize=auto;html=1;entryX=1;entryY=0.5;entryDx=0;entryDy=0;exitX=0.5;exitY=0;exitDx=0;exitDy=0;" parent="1" source="fwBL2x70ee9P1iaXBZ7O-114" target="fwBL2x70ee9P1iaXBZ7O-104" edge="1">
          <mxGeometry relative="1" as="geometry">
            <mxPoint x="1339" y="4060" as="sourcePoint" />
            <mxPoint x="1339" y="3950" as="targetPoint" />
            <Array as="points">
              <mxPoint x="1246.5" y="3480" />
            </Array>
          </mxGeometry>
        </mxCell>
        <mxCell id="fwBL2x70ee9P1iaXBZ7O-118" value="Evet" style="text;html=1;strokeColor=none;fillColor=none;align=center;verticalAlign=middle;whiteSpace=wrap;rounded=0;" parent="1" vertex="1">
          <mxGeometry x="1300" y="3790" width="40" height="20" as="geometry" />
        </mxCell>
        <mxCell id="fwBL2x70ee9P1iaXBZ7O-129" style="edgeStyle=orthogonalEdgeStyle;rounded=0;orthogonalLoop=1;jettySize=auto;html=1;exitX=0;exitY=0.5;exitDx=0;exitDy=0;entryX=1;entryY=0.5;entryDx=0;entryDy=0;" parent="1" source="fwBL2x70ee9P1iaXBZ7O-120" edge="1" target="9GNvUyGWZQtO7Sywx55W-7">
          <mxGeometry relative="1" as="geometry">
            <mxPoint x="1306.5" y="3900" as="targetPoint" />
          </mxGeometry>
        </mxCell>
        <mxCell id="fwBL2x70ee9P1iaXBZ7O-120" value="Lojistik Bilgisi Ekle" style="shape=parallelogram;perimeter=parallelogramPerimeter;whiteSpace=wrap;html=1;fixedSize=1;" parent="1" vertex="1">
          <mxGeometry x="1333.5" y="3870" width="133" height="60" as="geometry" />
        </mxCell>
        <mxCell id="fwBL2x70ee9P1iaXBZ7O-121" value="Sipariş Hazır&lt;br&gt;(Status)" style="shape=parallelogram;perimeter=parallelogramPerimeter;whiteSpace=wrap;html=1;fixedSize=1;" parent="1" vertex="1">
          <mxGeometry x="1333.5" y="3780" width="133" height="60" as="geometry" />
        </mxCell>
        <mxCell id="fwBL2x70ee9P1iaXBZ7O-126" style="edgeStyle=orthogonalEdgeStyle;rounded=0;orthogonalLoop=1;jettySize=auto;html=1;entryX=0;entryY=0.5;entryDx=0;entryDy=0;exitX=1;exitY=0.5;exitDx=0;exitDy=0;" parent="1" source="fwBL2x70ee9P1iaXBZ7O-113" target="fwBL2x70ee9P1iaXBZ7O-114" edge="1">
          <mxGeometry relative="1" as="geometry">
            <mxPoint x="1155" y="3859" as="sourcePoint" />
            <mxPoint x="1191.5" y="3859" as="targetPoint" />
            <Array as="points" />
          </mxGeometry>
        </mxCell>
        <mxCell id="fwBL2x70ee9P1iaXBZ7O-127" style="edgeStyle=orthogonalEdgeStyle;rounded=0;orthogonalLoop=1;jettySize=auto;html=1;exitX=1;exitY=0.5;exitDx=0;exitDy=0;entryX=0;entryY=0.5;entryDx=0;entryDy=0;" parent="1" source="fwBL2x70ee9P1iaXBZ7O-114" target="fwBL2x70ee9P1iaXBZ7O-121" edge="1">
          <mxGeometry relative="1" as="geometry">
            <mxPoint x="1316.5" y="3820" as="sourcePoint" />
            <mxPoint x="1336.5" y="3810" as="targetPoint" />
            <Array as="points" />
          </mxGeometry>
        </mxCell>
        <mxCell id="fwBL2x70ee9P1iaXBZ7O-128" style="edgeStyle=orthogonalEdgeStyle;rounded=0;orthogonalLoop=1;jettySize=auto;html=1;exitX=0.5;exitY=1;exitDx=0;exitDy=0;entryX=0.5;entryY=0;entryDx=0;entryDy=0;" parent="1" source="fwBL2x70ee9P1iaXBZ7O-121" target="fwBL2x70ee9P1iaXBZ7O-120" edge="1">
          <mxGeometry relative="1" as="geometry">
            <mxPoint x="1532.5" y="3850" as="sourcePoint" />
            <mxPoint x="1536.5" y="3880" as="targetPoint" />
            <Array as="points">
              <mxPoint x="1400.5" y="3870" />
            </Array>
          </mxGeometry>
        </mxCell>
        <mxCell id="fwBL2x70ee9P1iaXBZ7O-240" value="İlaç Listesi - Koli &lt;br&gt;İçeriği Kontrol" style="shape=parallelogram;perimeter=parallelogramPerimeter;whiteSpace=wrap;html=1;fixedSize=1;" parent="1" vertex="1">
          <mxGeometry x="840" y="2640" width="133" height="60" as="geometry" />
        </mxCell>
        <mxCell id="fwBL2x70ee9P1iaXBZ7O-241" style="edgeStyle=orthogonalEdgeStyle;rounded=0;orthogonalLoop=1;jettySize=auto;html=1;exitX=1;exitY=0.5;exitDx=0;exitDy=0;entryX=0;entryY=0.5;entryDx=0;entryDy=0;" parent="1" source="fwBL2x70ee9P1iaXBZ7O-240" edge="1">
          <mxGeometry relative="1" as="geometry">
            <mxPoint x="990" y="2669.5" as="sourcePoint" />
            <mxPoint x="1010.5" y="2670" as="targetPoint" />
            <Array as="points" />
          </mxGeometry>
        </mxCell>
        <mxCell id="fwBL2x70ee9P1iaXBZ7O-242" style="edgeStyle=orthogonalEdgeStyle;rounded=0;orthogonalLoop=1;jettySize=auto;html=1;exitX=1;exitY=0.5;exitDx=0;exitDy=0;entryX=0;entryY=0.5;entryDx=0;entryDy=0;" parent="1" edge="1">
          <mxGeometry relative="1" as="geometry">
            <mxPoint x="1117.5" y="2669.5" as="sourcePoint" />
            <mxPoint x="1165" y="2669.5" as="targetPoint" />
            <Array as="points" />
          </mxGeometry>
        </mxCell>
        <mxCell id="fwBL2x70ee9P1iaXBZ7O-243" value="Evet" style="text;html=1;strokeColor=none;fillColor=none;align=center;verticalAlign=middle;whiteSpace=wrap;rounded=0;" parent="1" vertex="1">
          <mxGeometry x="1117.5" y="2650" width="40" height="20" as="geometry" />
        </mxCell>
        <mxCell id="fwBL2x70ee9P1iaXBZ7O-244" value="Koli Aç" style="shape=parallelogram;perimeter=parallelogramPerimeter;whiteSpace=wrap;html=1;fixedSize=1;" parent="1" vertex="1">
          <mxGeometry x="1157.5" y="2640" width="133" height="60" as="geometry" />
        </mxCell>
        <mxCell id="fwBL2x70ee9P1iaXBZ7O-245" style="edgeStyle=orthogonalEdgeStyle;rounded=0;orthogonalLoop=1;jettySize=auto;html=1;exitX=0.5;exitY=1;exitDx=0;exitDy=0;entryX=0.5;entryY=0;entryDx=0;entryDy=0;" parent="1" source="fwBL2x70ee9P1iaXBZ7O-244" target="fwBL2x70ee9P1iaXBZ7O-246" edge="1">
          <mxGeometry relative="1" as="geometry">
            <mxPoint x="1222.5" y="2800" as="sourcePoint" />
            <mxPoint x="1224" y="2740" as="targetPoint" />
            <Array as="points" />
          </mxGeometry>
        </mxCell>
        <mxCell id="fwBL2x70ee9P1iaXBZ7O-246" value="İlaç Okut" style="shape=parallelogram;perimeter=parallelogramPerimeter;whiteSpace=wrap;html=1;fixedSize=1;" parent="1" vertex="1">
          <mxGeometry x="1157.5" y="2760" width="133" height="60" as="geometry" />
        </mxCell>
        <mxCell id="fwBL2x70ee9P1iaXBZ7O-247" value="Yanlış İlaç Var mı?" style="rhombus;whiteSpace=wrap;html=1;" parent="1" vertex="1">
          <mxGeometry x="1170.5" y="2850" width="107" height="100" as="geometry" />
        </mxCell>
        <mxCell id="fwBL2x70ee9P1iaXBZ7O-248" style="edgeStyle=orthogonalEdgeStyle;rounded=0;orthogonalLoop=1;jettySize=auto;html=1;exitX=0.5;exitY=1;exitDx=0;exitDy=0;" parent="1" source="fwBL2x70ee9P1iaXBZ7O-246" edge="1">
          <mxGeometry relative="1" as="geometry">
            <mxPoint x="1223.5" y="2810" as="sourcePoint" />
            <mxPoint x="1223.5" y="2850" as="targetPoint" />
            <Array as="points" />
          </mxGeometry>
        </mxCell>
        <mxCell id="fwBL2x70ee9P1iaXBZ7O-249" value="Başka Koli Var mı?" style="rhombus;whiteSpace=wrap;html=1;" parent="1" vertex="1">
          <mxGeometry x="1170.5" y="3000" width="107" height="100" as="geometry" />
        </mxCell>
        <mxCell id="fwBL2x70ee9P1iaXBZ7O-250" style="edgeStyle=orthogonalEdgeStyle;rounded=0;orthogonalLoop=1;jettySize=auto;html=1;exitX=0.5;exitY=1;exitDx=0;exitDy=0;" parent="1" edge="1">
          <mxGeometry relative="1" as="geometry">
            <mxPoint x="1224" y="2950" as="sourcePoint" />
            <mxPoint x="1223.5" y="3000" as="targetPoint" />
            <Array as="points">
              <mxPoint x="1224" y="2975" />
            </Array>
          </mxGeometry>
        </mxCell>
        <mxCell id="fwBL2x70ee9P1iaXBZ7O-251" value="Hayır" style="text;html=1;strokeColor=none;fillColor=none;align=center;verticalAlign=middle;whiteSpace=wrap;rounded=0;" parent="1" vertex="1">
          <mxGeometry x="1230" y="2960" width="40" height="20" as="geometry" />
        </mxCell>
        <mxCell id="fwBL2x70ee9P1iaXBZ7O-252" style="edgeStyle=orthogonalEdgeStyle;rounded=0;orthogonalLoop=1;jettySize=auto;html=1;exitX=1;exitY=0.5;exitDx=0;exitDy=0;entryX=1;entryY=0.5;entryDx=0;entryDy=0;" parent="1" source="fwBL2x70ee9P1iaXBZ7O-249" target="fwBL2x70ee9P1iaXBZ7O-244" edge="1">
          <mxGeometry relative="1" as="geometry">
            <mxPoint x="1320" y="3049.5" as="sourcePoint" />
            <mxPoint x="1350" y="2670" as="targetPoint" />
            <Array as="points">
              <mxPoint x="1390" y="3050" />
              <mxPoint x="1390" y="2670" />
            </Array>
          </mxGeometry>
        </mxCell>
        <mxCell id="fwBL2x70ee9P1iaXBZ7O-253" value="Evet" style="text;html=1;strokeColor=none;fillColor=none;align=center;verticalAlign=middle;whiteSpace=wrap;rounded=0;" parent="1" vertex="1">
          <mxGeometry x="1390" y="2830" width="40" height="20" as="geometry" />
        </mxCell>
        <mxCell id="fwBL2x70ee9P1iaXBZ7O-254" value="Hayır" style="text;html=1;strokeColor=none;fillColor=none;align=center;verticalAlign=middle;whiteSpace=wrap;rounded=0;" parent="1" vertex="1">
          <mxGeometry x="1230" y="3110" width="40" height="20" as="geometry" />
        </mxCell>
        <mxCell id="fwBL2x70ee9P1iaXBZ7O-255" style="edgeStyle=orthogonalEdgeStyle;rounded=0;orthogonalLoop=1;jettySize=auto;html=1;exitX=0.5;exitY=1;exitDx=0;exitDy=0;" parent="1" edge="1">
          <mxGeometry relative="1" as="geometry">
            <mxPoint x="1224" y="3100" as="sourcePoint" />
            <mxPoint x="1223.5" y="3150" as="targetPoint" />
            <Array as="points">
              <mxPoint x="1224" y="3125" />
            </Array>
          </mxGeometry>
        </mxCell>
        <mxCell id="fwBL2x70ee9P1iaXBZ7O-256" value="Depo Stoğuna Ekle" style="shape=parallelogram;perimeter=parallelogramPerimeter;whiteSpace=wrap;html=1;fixedSize=1;" parent="1" vertex="1">
          <mxGeometry x="1157.5" y="3150" width="133" height="60" as="geometry" />
        </mxCell>
        <mxCell id="fwBL2x70ee9P1iaXBZ7O-257" value="İlaç Raf Bilgisi Ekle" style="shape=parallelogram;perimeter=parallelogramPerimeter;whiteSpace=wrap;html=1;fixedSize=1;" parent="1" vertex="1">
          <mxGeometry x="1157.5" y="3240" width="133" height="60" as="geometry" />
        </mxCell>
        <mxCell id="fwBL2x70ee9P1iaXBZ7O-258" style="edgeStyle=orthogonalEdgeStyle;rounded=0;orthogonalLoop=1;jettySize=auto;html=1;" parent="1" edge="1">
          <mxGeometry relative="1" as="geometry">
            <mxPoint x="1223.5" y="3210" as="sourcePoint" />
            <mxPoint x="1223.5" y="3240" as="targetPoint" />
            <Array as="points">
              <mxPoint x="1224" y="3215" />
            </Array>
          </mxGeometry>
        </mxCell>
        <mxCell id="fwBL2x70ee9P1iaXBZ7O-259" value="&lt;font style=&quot;font-size: 11px&quot;&gt;Siparis Teslim Alındı&lt;br&gt;- Siparis Eksik&lt;br&gt;&amp;nbsp;Teslim Alındı&lt;br&gt;(Status)&lt;/font&gt;" style="shape=parallelogram;perimeter=parallelogramPerimeter;whiteSpace=wrap;html=1;fixedSize=1;" parent="1" vertex="1">
          <mxGeometry x="1157.5" y="3340" width="133" height="60" as="geometry" />
        </mxCell>
        <mxCell id="fwBL2x70ee9P1iaXBZ7O-260" style="edgeStyle=orthogonalEdgeStyle;rounded=0;orthogonalLoop=1;jettySize=auto;html=1;entryX=0.5;entryY=0;entryDx=0;entryDy=0;" parent="1" target="fwBL2x70ee9P1iaXBZ7O-259" edge="1">
          <mxGeometry relative="1" as="geometry">
            <mxPoint x="1223.5" y="3300" as="sourcePoint" />
            <mxPoint x="1223.5" y="3330" as="targetPoint" />
            <Array as="points" />
          </mxGeometry>
        </mxCell>
        <mxCell id="fwBL2x70ee9P1iaXBZ7O-261" value="Satın Alma" style="shape=parallelogram;perimeter=parallelogramPerimeter;whiteSpace=wrap;html=1;fixedSize=1;" parent="1" vertex="1">
          <mxGeometry x="797" y="3340" width="133" height="60" as="geometry" />
        </mxCell>
        <mxCell id="fwBL2x70ee9P1iaXBZ7O-262" style="edgeStyle=orthogonalEdgeStyle;rounded=0;orthogonalLoop=1;jettySize=auto;html=1;exitX=0;exitY=0.5;exitDx=0;exitDy=0;entryX=1;entryY=0.5;entryDx=0;entryDy=0;" parent="1" source="fwBL2x70ee9P1iaXBZ7O-259" target="9GNvUyGWZQtO7Sywx55W-1" edge="1">
          <mxGeometry relative="1" as="geometry">
            <mxPoint x="996" y="3214" as="sourcePoint" />
            <mxPoint x="1043.5" y="3214" as="targetPoint" />
            <Array as="points" />
          </mxGeometry>
        </mxCell>
        <mxCell id="fwBL2x70ee9P1iaXBZ7O-263" style="edgeStyle=orthogonalEdgeStyle;rounded=0;orthogonalLoop=1;jettySize=auto;html=1;exitX=0;exitY=0.5;exitDx=0;exitDy=0;entryX=0.5;entryY=0;entryDx=0;entryDy=0;" parent="1" source="fwBL2x70ee9P1iaXBZ7O-261" target="fwBL2x70ee9P1iaXBZ7O-100" edge="1">
          <mxGeometry relative="1" as="geometry">
            <mxPoint x="954.5" y="3369.5" as="sourcePoint" />
            <mxPoint x="770" y="3370" as="targetPoint" />
            <Array as="points">
              <mxPoint x="790" y="3370" />
              <mxPoint x="790" y="3440" />
            </Array>
          </mxGeometry>
        </mxCell>
        <mxCell id="fwBL2x70ee9P1iaXBZ7O-264" style="edgeStyle=orthogonalEdgeStyle;rounded=0;orthogonalLoop=1;jettySize=auto;html=1;entryX=1;entryY=0.5;entryDx=0;entryDy=0;" parent="1" target="fwBL2x70ee9P1iaXBZ7O-266" edge="1">
          <mxGeometry relative="1" as="geometry">
            <mxPoint x="1170" y="2900" as="sourcePoint" />
            <mxPoint x="1110" y="2900" as="targetPoint" />
            <Array as="points" />
          </mxGeometry>
        </mxCell>
        <mxCell id="fwBL2x70ee9P1iaXBZ7O-265" value="Evet" style="text;html=1;strokeColor=none;fillColor=none;align=center;verticalAlign=middle;whiteSpace=wrap;rounded=0;" parent="1" vertex="1">
          <mxGeometry x="1123.5" y="2880" width="40" height="20" as="geometry" />
        </mxCell>
        <mxCell id="fwBL2x70ee9P1iaXBZ7O-266" value="Satın Alma" style="shape=parallelogram;perimeter=parallelogramPerimeter;whiteSpace=wrap;html=1;fixedSize=1;" parent="1" vertex="1">
          <mxGeometry x="984.5" y="2870" width="133" height="60" as="geometry" />
        </mxCell>
        <mxCell id="fwBL2x70ee9P1iaXBZ7O-267" value="Sipariş İptal mi?" style="rhombus;whiteSpace=wrap;html=1;" parent="1" vertex="1">
          <mxGeometry x="997.5" y="2980" width="107" height="100" as="geometry" />
        </mxCell>
        <mxCell id="fwBL2x70ee9P1iaXBZ7O-268" style="edgeStyle=orthogonalEdgeStyle;rounded=0;orthogonalLoop=1;jettySize=auto;html=1;exitX=0.5;exitY=1;exitDx=0;exitDy=0;" parent="1" edge="1">
          <mxGeometry relative="1" as="geometry">
            <mxPoint x="1090" y="2740" as="sourcePoint" />
            <mxPoint x="1090" y="2740" as="targetPoint" />
          </mxGeometry>
        </mxCell>
        <mxCell id="fwBL2x70ee9P1iaXBZ7O-269" style="edgeStyle=orthogonalEdgeStyle;rounded=0;orthogonalLoop=1;jettySize=auto;html=1;exitX=0.5;exitY=1;exitDx=0;exitDy=0;entryX=0.5;entryY=0;entryDx=0;entryDy=0;" parent="1" source="fwBL2x70ee9P1iaXBZ7O-266" target="fwBL2x70ee9P1iaXBZ7O-267" edge="1">
          <mxGeometry relative="1" as="geometry">
            <mxPoint x="919" y="2950" as="sourcePoint" />
            <mxPoint x="919" y="2990" as="targetPoint" />
            <Array as="points" />
          </mxGeometry>
        </mxCell>
        <mxCell id="fwBL2x70ee9P1iaXBZ7O-270" style="edgeStyle=orthogonalEdgeStyle;rounded=0;orthogonalLoop=1;jettySize=auto;html=1;entryX=1;entryY=0.5;entryDx=0;entryDy=0;exitX=0;exitY=0.5;exitDx=0;exitDy=0;" parent="1" target="9GNvUyGWZQtO7Sywx55W-6" edge="1" source="fwBL2x70ee9P1iaXBZ7O-267">
          <mxGeometry relative="1" as="geometry">
            <mxPoint x="940.38" y="2994.5" as="sourcePoint" />
            <mxPoint x="872.63" y="2995" as="targetPoint" />
            <Array as="points">
              <mxPoint x="935" y="3030" />
              <mxPoint x="935" y="3025" />
            </Array>
          </mxGeometry>
        </mxCell>
        <mxCell id="fwBL2x70ee9P1iaXBZ7O-271" value="Evet" style="text;html=1;strokeColor=none;fillColor=none;align=center;verticalAlign=middle;whiteSpace=wrap;rounded=0;" parent="1" vertex="1">
          <mxGeometry x="945" y="3010" width="40" height="20" as="geometry" />
        </mxCell>
        <mxCell id="fwBL2x70ee9P1iaXBZ7O-273" style="edgeStyle=orthogonalEdgeStyle;rounded=0;orthogonalLoop=1;jettySize=auto;html=1;exitX=0.5;exitY=1;exitDx=0;exitDy=0;" parent="1" edge="1">
          <mxGeometry relative="1" as="geometry">
            <mxPoint x="1051" y="3080" as="sourcePoint" />
            <mxPoint x="1050.5" y="3130" as="targetPoint" />
            <Array as="points">
              <mxPoint x="1051" y="3105" />
            </Array>
          </mxGeometry>
        </mxCell>
        <mxCell id="fwBL2x70ee9P1iaXBZ7O-274" value="Hayır" style="text;html=1;strokeColor=none;fillColor=none;align=center;verticalAlign=middle;whiteSpace=wrap;rounded=0;" parent="1" vertex="1">
          <mxGeometry x="1050" y="3090" width="40" height="20" as="geometry" />
        </mxCell>
        <mxCell id="fwBL2x70ee9P1iaXBZ7O-275" value="Hatalılar İade,&lt;br&gt;Geri Kalan Kabul&lt;br&gt;" style="shape=parallelogram;perimeter=parallelogramPerimeter;whiteSpace=wrap;html=1;fixedSize=1;" parent="1" vertex="1">
          <mxGeometry x="984.5" y="3130" width="133" height="60" as="geometry" />
        </mxCell>
        <mxCell id="fwBL2x70ee9P1iaXBZ7O-276" style="edgeStyle=orthogonalEdgeStyle;rounded=0;orthogonalLoop=1;jettySize=auto;html=1;exitX=1;exitY=0.5;exitDx=0;exitDy=0;" parent="1" source="fwBL2x70ee9P1iaXBZ7O-275" edge="1">
          <mxGeometry relative="1" as="geometry">
            <mxPoint x="1110" y="3109" as="sourcePoint" />
            <mxPoint x="1170" y="3050" as="targetPoint" />
            <Array as="points">
              <mxPoint x="1140" y="3160" />
              <mxPoint x="1140" y="3050" />
            </Array>
          </mxGeometry>
        </mxCell>
        <mxCell id="fwBL2x70ee9P1iaXBZ7O-277" style="edgeStyle=orthogonalEdgeStyle;rounded=0;orthogonalLoop=1;jettySize=auto;html=1;exitX=0.5;exitY=1;exitDx=0;exitDy=0;entryX=0.59;entryY=-0.053;entryDx=0;entryDy=0;entryPerimeter=0;" parent="1" target="fwBL2x70ee9P1iaXBZ7O-266" edge="1">
          <mxGeometry relative="1" as="geometry">
            <mxPoint x="1064" y="2720" as="sourcePoint" />
            <mxPoint x="1064" y="2860" as="targetPoint" />
            <Array as="points" />
          </mxGeometry>
        </mxCell>
        <mxCell id="fwBL2x70ee9P1iaXBZ7O-278" value="Hayır" style="text;html=1;strokeColor=none;fillColor=none;align=center;verticalAlign=middle;whiteSpace=wrap;rounded=0;" parent="1" vertex="1">
          <mxGeometry x="1073.5" y="2780" width="40" height="20" as="geometry" />
        </mxCell>
        <mxCell id="fwBL2x70ee9P1iaXBZ7O-279" value="&lt;font style=&quot;font-size: 12px&quot;&gt;&lt;br&gt;İlaç Cinsi ve Sayısı Doğru mu?&lt;/font&gt;" style="rhombus;whiteSpace=wrap;html=1;" parent="1" vertex="1">
          <mxGeometry x="1010.5" y="2620" width="107" height="100" as="geometry" />
        </mxCell>
        <mxCell id="fwBL2x70ee9P1iaXBZ7O-280" value="Depo-Stok" style="shape=parallelogram;perimeter=parallelogramPerimeter;whiteSpace=wrap;html=1;fixedSize=1;" parent="1" vertex="1">
          <mxGeometry x="840" y="2510" width="133" height="60" as="geometry" />
        </mxCell>
        <mxCell id="fwBL2x70ee9P1iaXBZ7O-281" style="edgeStyle=orthogonalEdgeStyle;rounded=0;orthogonalLoop=1;jettySize=auto;html=1;exitX=0.5;exitY=1;exitDx=0;exitDy=0;entryX=0.5;entryY=0;entryDx=0;entryDy=0;" parent="1" source="fwBL2x70ee9P1iaXBZ7O-280" target="fwBL2x70ee9P1iaXBZ7O-240" edge="1">
          <mxGeometry relative="1" as="geometry">
            <mxPoint x="1009" y="2570" as="sourcePoint" />
            <mxPoint x="1009" y="2630" as="targetPoint" />
            <Array as="points" />
          </mxGeometry>
        </mxCell>
        <mxCell id="9GNvUyGWZQtO7Sywx55W-2" style="edgeStyle=orthogonalEdgeStyle;rounded=0;orthogonalLoop=1;jettySize=auto;html=1;exitX=0;exitY=0.5;exitDx=0;exitDy=0;entryX=1;entryY=0.5;entryDx=0;entryDy=0;" edge="1" parent="1" source="9GNvUyGWZQtO7Sywx55W-1" target="fwBL2x70ee9P1iaXBZ7O-261">
          <mxGeometry relative="1" as="geometry" />
        </mxCell>
        <mxCell id="9GNvUyGWZQtO7Sywx55W-4" style="edgeStyle=orthogonalEdgeStyle;rounded=0;orthogonalLoop=1;jettySize=auto;html=1;exitX=0.5;exitY=0;exitDx=0;exitDy=0;entryX=0.5;entryY=1;entryDx=0;entryDy=0;" edge="1" parent="1" source="9GNvUyGWZQtO7Sywx55W-1" target="9GNvUyGWZQtO7Sywx55W-6">
          <mxGeometry relative="1" as="geometry">
            <mxPoint x="885" y="3050" as="targetPoint" />
            <Array as="points">
              <mxPoint x="1017" y="3280" />
              <mxPoint x="885" y="3280" />
              <mxPoint x="885" y="3010" />
            </Array>
          </mxGeometry>
        </mxCell>
        <mxCell id="9GNvUyGWZQtO7Sywx55W-1" value="Sipariş Stok İçin Mİ?" style="rhombus;whiteSpace=wrap;html=1;" vertex="1" parent="1">
          <mxGeometry x="963" y="3320" width="107" height="100" as="geometry" />
        </mxCell>
        <mxCell id="9GNvUyGWZQtO7Sywx55W-3" value="Hayır" style="text;html=1;strokeColor=none;fillColor=none;align=center;verticalAlign=middle;whiteSpace=wrap;rounded=0;" vertex="1" parent="1">
          <mxGeometry x="929.5" y="3350" width="40" height="20" as="geometry" />
        </mxCell>
        <mxCell id="9GNvUyGWZQtO7Sywx55W-5" value="Evet" style="text;html=1;strokeColor=none;fillColor=none;align=center;verticalAlign=middle;whiteSpace=wrap;rounded=0;" vertex="1" parent="1">
          <mxGeometry x="913" y="3260" width="40" height="20" as="geometry" />
        </mxCell>
        <mxCell id="9GNvUyGWZQtO7Sywx55W-6" value="Bitir" style="ellipse;whiteSpace=wrap;html=1;aspect=fixed;strokeWidth=5;" vertex="1" parent="1">
          <mxGeometry x="863" y="3000" width="50" height="50" as="geometry" />
        </mxCell>
        <mxCell id="9GNvUyGWZQtO7Sywx55W-7" value="Bitir" style="ellipse;whiteSpace=wrap;html=1;aspect=fixed;strokeWidth=5;" vertex="1" parent="1">
          <mxGeometry x="1220" y="3875" width="50" height="50" as="geometry" />
        </mxCell>
      </root>
    </mxGraphModel>
  </diagram>
</mxfile>
